<?xml version="1.0" encoding="utf-8"?>
<!-- Generator: Adobe Illustrator 22.1.0, SVG Export Plug-In . SVG Version: 6.00 Build 0)  -->
<svg version="1.1" id="Layer_1" xmlns="http://www.w3.org/2000/svg" xmlns:xlink="http://www.w3.org/1999/xlink" x="0px" y="0px"
	 viewBox="0 0 24 24" style="enable-background:new 0 0 24 24;" xml:space="preserve">
<style type="text/css">
	.st0{display:none;}
	.st1{fill:none;}
	.st2{fill:#FFFFFF;}
</style>
<g id="Bounding_Boxes">
	<g id="ui_x5F_spec_x5F_header_copy_3" class="st0">
	</g>
	<path class="st1" d="M0,0h24v24H0V0z"/>
</g>
<g id="Rounded_1_">
	<g id="ui_x5F_spec_x5F_header_copy_6" class="st0">
	</g>
	<path class="st2" d="M18,13h-5v5c0,0.5-0.4,1-1,1l0,0c-0.6,0-1-0.5-1-1v-5H6c-0.6,0-1-0.4-1-1l0,0c0-0.6,0.4-1,1-1h5V6
		c0-0.6,0.4-1,1-1l0,0c0.6,0,1,0.4,1,1v5h5c0.5,0,1,0.4,1,1l0,0C19,12.6,18.5,13,18,13z"/>
</g>
</svg>
